<svg xmlns="http://www.w3.org/2000/svg" xmlns:xlink="http://www.w3.org/1999/xlink" width="44" zoomAndPan="magnify" viewBox="0 0 33 32.999998" height="44" preserveAspectRatio="xMidYMid meet" version="1.0"><defs><clipPath id="2b73477ab2"><path d="M 3.300781 0 L 29.550781 0 L 29.550781 9 L 3.300781 9 Z M 3.300781 0 " clip-rule="nonzero"/></clipPath><clipPath id="2ed1480670"><path d="M 3.300781 11 L 29.550781 11 L 29.550781 21 L 3.300781 21 Z M 3.300781 11 " clip-rule="nonzero"/></clipPath><clipPath id="b4d4317646"><path d="M 3.300781 24 L 12 24 L 12 33 L 3.300781 33 Z M 3.300781 24 " clip-rule="nonzero"/></clipPath></defs><g clip-path="url(#2b73477ab2)"><path fill="#ffffff" d="M 3.300781 0.0117188 L 3.300781 8.085938 L 29.546875 8.085938 L 29.546875 0.0117188 L 3.300781 0.0117188 " fill-opacity="1" fill-rule="nonzero"/></g><g clip-path="url(#2ed1480670)"><path fill="#ffffff" d="M 3.300781 20.042969 L 29.546875 20.042969 L 29.546875 11.96875 L 3.300781 11.96875 L 3.300781 20.042969 " fill-opacity="1" fill-rule="nonzero"/></g><g clip-path="url(#b4d4317646)"><path fill="#ffffff" d="M 3.300781 32.984375 L 11.84375 32.984375 L 11.84375 24.390625 L 3.300781 24.390625 L 3.300781 32.984375 " fill-opacity="1" fill-rule="nonzero"/></g></svg>